<?xml version="1.0" encoding="iso-8859-1"?>
<!-- Generator: Adobe Illustrator 19.0.0, SVG Export Plug-In . SVG Version: 6.00 Build 0)  -->
<svg version="1.1" id="Layer_1" xmlns="http://www.w3.org/2000/svg" xmlns:xlink="http://www.w3.org/1999/xlink" x="0px" y="0px"
	 viewBox="0 0 512 512" style="enable-background:new 0 0 512 512;" xml:space="preserve">
<g style="enable-background:new    ;">
	<path style="fill:#FFA834;" d="M51.896,146.348c-34.584,20.099-51.836,46.42-51.798,72.761c0-0.086-0.005-0.17-0.004-0.255
		L0,251.137c-0.075,26.596,17.479,53.233,52.625,73.524c19.665,11.353,42.743,19.513,67.302,24.472l0.092-32.283
		c-20.662-33.966-9.81-72.885,32.633-101.486c-10.721-32.401,5.449-67.156,48.589-92.227c3.148-1.83,6.389-3.572,9.709-5.236
		C154.981,111.8,95.036,121.278,51.896,146.348z"/>
	<path style="fill:#FF6342;" d="M511.993,195.648c0.22-26.702-17.327-53.47-52.614-73.844
		c-66.678-38.497-172.566-40.24-242.402-5.237c34.055,3.714,66.633,13.194,93.054,28.449c19.665,11.353,33.823,24.692,42.465,38.901
		c24.559,4.959,47.633,13.117,67.302,24.473c26.417,15.252,42.892,34.091,49.411,53.803l-0.092,32.283
		c28.469-19.186,42.724-43.012,42.791-66.87l0.092-32.283C511.999,195.43,511.994,195.539,511.993,195.648z"/>
	<path style="fill:#A258CB;" d="M470.106,286.554c0.153-6.984-0.899-13.978-3.177-20.866c-2.862,1.929-5.866,3.811-9.014,5.64
		c-43.14,25.071-103.083,34.55-159.05,28.448c-49.241,24.679-116.399,31.091-175.101,19.236l-0.092,32.283
		c8.642,14.209,22.8,27.548,42.465,38.901c69.844,40.324,182.714,40.325,252.108-0.001c34.471-20.032,51.721-46.248,51.795-72.503
		l0.092-32.283C470.131,285.791,470.114,286.172,470.106,286.554z"/>
	<path style="fill:#FF5023;" d="M352.496,183.917l-0.092,32.283c-8.642-14.209-22.8-27.548-42.465-38.901
		c-26.421-15.254-58.999-24.735-93.053-28.449l0.092-32.283c34.055,3.714,66.633,13.195,93.054,28.449
		C329.696,156.369,343.853,169.708,352.496,183.917z"/>
	<path style="fill:#F18700;" d="M149.355,227.921l0.092-32.283c0.074-26.255,17.326-52.469,51.794-72.5
		c3.148-1.83,6.389-3.572,9.709-5.236l-0.092,32.283c-3.321,1.665-6.56,3.406-9.709,5.236
		C166.68,175.452,149.429,201.665,149.355,227.921z"/>
	<path style="fill:#FFB657;" d="M350.201,185.251l-0.092,32.283c-62.661-12.656-134.953-4.497-184.806,24.474
		c-3.148,1.83-6.148,3.71-9.011,5.639l0.092-32.283c2.862-1.929,5.863-3.81,9.011-5.639
		C215.248,180.752,287.54,172.595,350.201,185.251z"/>
	<path style="fill:#FEC377;" d="M153.088,227.921l0.092-32.283c-0.019,6.605,1.05,13.212,3.205,19.724l-0.092,32.283
		C154.138,241.133,153.069,234.526,153.088,227.921z"/>
	<path style="fill:#FEDAAA;" d="M307.736,146.349c19.665,11.354,33.823,24.692,42.465,38.901
		c-62.661-12.656-134.953-4.497-184.806,24.474c-3.148,1.83-6.148,3.71-9.011,5.639c-10.721-32.396,5.449-67.152,48.593-92.225
		c3.148-1.83,6.384-3.574,9.702-5.236C248.734,121.616,281.315,131.095,307.736,146.349z"/>
	<path style="fill:#FF3502;" d="M469.208,262.193l-0.092,32.283c-6.519-19.711-22.993-38.551-49.411-53.803
		c-19.668-11.355-42.743-19.513-67.302-24.473l0.092-32.283c24.559,4.959,47.633,13.117,67.302,24.473
		C446.215,223.642,462.689,242.482,469.208,262.193z"/>
	<path style="fill:#FF9478;" d="M360.359,219.874l-0.092,32.283c0.033-11.714-3.354-23.438-10.158-34.623l0.092-32.283
		C357.006,196.435,360.392,208.158,360.359,219.874z"/>
	<path style="fill:#FF5023;" d="M511.999,195.323l-0.092,32.283c-0.068,23.858-14.323,47.686-42.791,66.87l0.092-32.283
		C497.677,243.007,511.932,219.181,511.999,195.323z"/>
	<path style="fill:#FF6342;" d="M459.379,121.804c66.675,38.495,70.031,99.819,9.829,140.389
		c-6.519-19.711-22.993-38.551-49.411-53.804c-19.668-11.355-42.743-19.513-67.302-24.473c-8.642-14.209-22.8-27.548-42.465-38.901
		c-26.421-15.255-58.999-24.735-93.053-28.449C286.813,81.563,392.701,83.307,459.379,121.804z"/>
	<path style="fill:#F18700;" d="M109.769,314.514l0.092-32.283c0.068-23.858,14.324-47.683,42.79-66.867l-0.092,32.283
		C124.093,266.83,109.837,290.655,109.769,314.514z"/>
	<path style="fill:#D8D8DA;" d="M298.081,295.972l-0.092,32.283c-34.297-3.889-65.542-13.52-90.422-27.885
		c-24.883-14.366-41.609-32.432-48.435-52.281l0.092-32.283c6.825,19.85,23.551,37.915,48.435,52.281
		C232.538,282.453,263.783,292.083,298.081,295.972z"/>
	<path style="fill:#C6C5CB;" d="M357.731,219.844l-0.092,32.283c-0.02,7.151-1.339,14.315-3.969,21.375
		c-7.06,18.968-23.342,36.283-47.078,50.078c-2.74,1.592-5.631,3.163-8.603,4.675l0.092-32.283c2.972-1.512,5.863-3.083,8.603-4.675
		c23.737-13.795,40.018-31.11,47.078-50.078C356.392,234.159,357.711,226.995,357.731,219.844z"/>
	<path style="fill:#E0E0E2;" d="M348.131,186.453c10.469,17.615,12.421,36.536,5.631,54.765
		c-7.06,18.968-23.342,36.283-47.078,50.078c-2.74,1.592-5.631,3.163-8.603,4.675c-34.297-3.889-65.542-13.52-90.422-27.884
		c-24.883-14.366-41.609-32.431-48.435-52.281c2.598-1.728,5.3-3.408,8.044-5.002c23.737-13.795,53.581-23.28,86.301-27.433
		C285.017,179.38,317.687,180.446,348.131,186.453z"/>
	<path style="fill:#FF7956;" d="M466.913,263.526l-0.092,32.283c-2.859,1.927-5.859,3.811-9.007,5.64
		c-43.14,25.071-103.09,34.55-159.053,28.446l0.092-32.283c55.964,6.103,115.913-3.376,159.053-28.446
		C461.055,267.337,464.055,265.453,466.913,263.526z"/>
	<path style="fill:#FEBCAC;" d="M417.503,209.723c26.417,15.253,42.892,34.091,49.411,53.803c-2.859,1.927-5.859,3.811-9.007,5.64
		c-43.14,25.071-103.09,34.55-159.053,28.446c3.318-1.662,6.557-3.404,9.705-5.234c49.853-28.971,63.697-70.874,41.644-107.128
		C374.76,190.21,397.834,198.368,417.503,209.723z"/>
	<path style="fill:#D5B4E9;" d="M113.503,314.511l0.092-32.283c-0.033,11.713,3.354,23.435,10.158,34.619l-0.092,32.283
		C116.856,337.947,113.469,326.226,113.503,314.511z"/>
	<path style="fill:#FF9911;" d="M0,251.137l0.092-32.283c-0.075,26.596,17.479,53.232,52.625,73.524
		c19.665,11.354,42.743,19.513,67.302,24.473l-0.092,32.283c-24.559-4.959-47.636-13.119-67.302-24.472
		C17.48,304.368-0.075,277.732,0,251.137z"/>
	<path style="fill:#FFA834;" d="M210.949,117.902c-3.321,1.665-6.56,3.406-9.709,5.236c-43.14,25.071-59.309,59.826-48.589,92.227
		c-42.441,28.601-53.295,67.52-32.633,101.486c-24.559-4.959-47.636-13.119-67.302-24.473
		c-69.843-40.324-70.215-105.703-0.822-146.029C95.036,121.278,154.981,111.8,210.949,117.902z"/>
	<path style="fill:#B77FDA;" d="M298.852,297.613l-0.092,32.283c-49.238,24.681-116.399,31.094-175.101,19.236l0.092-32.283
		C182.453,328.708,249.615,322.294,298.852,297.613z"/>
	<path style="fill:#E4CEF2;" d="M298.852,297.613c-49.238,24.681-116.399,31.096-175.101,19.236
		c-20.662-33.962-9.813-72.883,32.633-101.486c6.522,19.713,22.993,38.551,49.415,53.806
		C232.22,284.422,264.802,293.902,298.852,297.613z"/>
	<path style="fill:#A258CB;" d="M466.929,265.688c10.718,32.399-5.452,67.154-48.593,92.225
		c-69.393,40.326-182.264,40.325-252.108,0.001c-19.665-11.354-33.823-24.692-42.465-38.901
		c58.702,11.856,125.859,5.444,175.101-19.236c55.968,6.102,115.91-3.377,159.05-28.448
		C461.063,269.5,464.067,267.617,466.929,265.688z"/>
	<path style="fill:#943EC7;" d="M470.132,285.41l-0.092,32.283c-0.074,26.255-17.326,52.471-51.795,72.503
		c-69.393,40.326-182.264,40.325-252.108,0.001c-19.665-11.354-33.823-24.692-42.465-38.901l0.092-32.283
		c8.642,14.209,22.801,27.548,42.465,38.901c69.844,40.324,182.714,40.325,252.108-0.001
		C452.807,337.881,470.058,311.666,470.132,285.41z"/>
</g>
<g>
</g>
<g>
</g>
<g>
</g>
<g>
</g>
<g>
</g>
<g>
</g>
<g>
</g>
<g>
</g>
<g>
</g>
<g>
</g>
<g>
</g>
<g>
</g>
<g>
</g>
<g>
</g>
<g>
</g>
</svg>
